<svg xmlns="http://www.w3.org/2000/svg" xmlns:xlink="http://www.w3.org/1999/xlink" version="1.1" width="256" height="256" viewBox="0 0 256 256" xml:space="preserve">
<g style="stroke: none; stroke-width: 0; stroke-dasharray: none; stroke-linecap: butt; stroke-linejoin: miter; stroke-miterlimit: 10; fill: none; fill-rule: nonzero; opacity: 1;" transform="translate(1.4065934065934016 1.4065934065934016) scale(2.81 2.81)">
	<path d="M 42.685 88.018 c -0.944 0 -1.935 -0.233 -2.809 -0.929 c -2.075 -1.653 -1.61 -4.302 -1.435 -5.299 l 0.015 -0.085 c 0.097 -0.573 0.523 -3.138 0.589 -3.532 c 0.143 -1.106 0.122 -1.725 0.087 -2.032 c -0.248 -0.131 -0.736 -0.332 -1.527 -0.51 C 15.806 72.699 0 57.334 0 39.057 C 0 18.615 20.187 1.984 45 1.984 c 24.813 0 45 16.631 45 37.073 c 0 6.388 -1.921 12.34 -5.848 18.055 h 0.347 l -2.727 3.14 c -0.471 0.568 -0.964 1.135 -1.476 1.7 l -0.03 0.034 c -9.005 10.364 -29.164 23.109 -34.124 25.199 C 45.535 87.442 44.169 88.018 42.685 88.018 z M 45 7.872 c -21.566 0 -39.112 13.99 -39.112 31.185 c 0 15.321 13.716 28.255 32.614 30.754 l 0.234 0.04 c 3.099 0.668 5.056 1.964 5.817 3.853 c 0.524 1.311 0.625 2.988 0.324 5.285 l -0.015 0.099 c 0 0 -0.221 1.327 -0.399 2.397 c 5.106 -2.446 21.464 -12.945 29.972 -21.843 l 1.432 -1.571 c 5.626 -6.17 8.246 -12.212 8.246 -19.015 C 84.112 21.862 66.566 7.872 45 7.872 z" style="stroke: none; stroke-width: 1; stroke-dasharray: none; stroke-linecap: butt; stroke-linejoin: miter; stroke-miterlimit: 10; fill: rgb(0,185,0); fill-rule: nonzero; opacity: 1;" transform=" matrix(1 0 0 1 0 0) " stroke-linecap="round"/>
	<path d="M 37.309 31.467 h -2.655 c -0.407 0 -0.737 0.33 -0.737 0.736 v 16.492 c 0 0.406 0.33 0.735 0.737 0.735 h 2.655 c 0.407 0 0.737 -0.329 0.737 -0.735 V 32.203 C 38.047 31.797 37.716 31.467 37.309 31.467" style="stroke: none; stroke-width: 1; stroke-dasharray: none; stroke-linecap: butt; stroke-linejoin: miter; stroke-miterlimit: 10; fill: rgb(0,185,0); fill-rule: nonzero; opacity: 1;" transform=" matrix(1 0 0 1 0 0) " stroke-linecap="round"/>
	<path d="M 55.584 31.467 h -2.655 c -0.407 0 -0.737 0.33 -0.737 0.736 v 9.798 l -7.558 -10.207 c -0.017 -0.026 -0.037 -0.051 -0.057 -0.075 c -0.002 -0.002 -0.004 -0.004 -0.005 -0.005 c -0.014 -0.016 -0.029 -0.031 -0.044 -0.045 c -0.005 -0.004 -0.009 -0.008 -0.014 -0.013 c -0.013 -0.011 -0.026 -0.023 -0.039 -0.033 c -0.006 -0.005 -0.013 -0.01 -0.019 -0.015 c -0.013 -0.009 -0.025 -0.018 -0.038 -0.026 c -0.007 -0.005 -0.014 -0.009 -0.022 -0.013 c -0.013 -0.008 -0.026 -0.016 -0.039 -0.022 c -0.008 -0.004 -0.016 -0.008 -0.023 -0.011 c -0.014 -0.006 -0.027 -0.013 -0.042 -0.018 c -0.008 -0.003 -0.016 -0.006 -0.024 -0.008 c -0.014 -0.005 -0.029 -0.01 -0.044 -0.014 c -0.008 -0.002 -0.017 -0.004 -0.026 -0.007 c -0.014 -0.004 -0.028 -0.007 -0.042 -0.01 c -0.01 -0.002 -0.021 -0.003 -0.031 -0.004 c -0.013 -0.002 -0.026 -0.004 -0.039 -0.005 c -0.013 -0.001 -0.025 -0.002 -0.038 -0.002 c -0.009 0 -0.017 -0.001 -0.026 -0.001 h -2.655 c -0.407 0 -0.737 0.33 -0.737 0.736 v 16.492 c 0 0.406 0.33 0.735 0.737 0.735 h 2.655 c 0.407 0 0.738 -0.329 0.738 -0.735 V 38.9 l 7.567 10.22 c 0.052 0.073 0.117 0.134 0.187 0.182 c 0.002 0.002 0.005 0.004 0.008 0.006 c 0.015 0.01 0.03 0.019 0.045 0.027 c 0.007 0.004 0.014 0.008 0.021 0.011 c 0.011 0.006 0.023 0.012 0.035 0.017 c 0.012 0.005 0.023 0.01 0.036 0.015 c 0.008 0.003 0.014 0.006 0.022 0.008 c 0.017 0.006 0.033 0.011 0.05 0.016 c 0.004 0.001 0.007 0.002 0.011 0.002 c 0.06 0.016 0.123 0.025 0.189 0.025 h 2.655 c 0.407 0 0.737 -0.329 0.737 -0.735 V 32.203 C 56.321 31.797 55.991 31.467 55.584 31.467" style="stroke: none; stroke-width: 1; stroke-dasharray: none; stroke-linecap: butt; stroke-linejoin: miter; stroke-miterlimit: 10; fill: rgb(0,185,0); fill-rule: nonzero; opacity: 1;" transform=" matrix(1 0 0 1 0 0) " stroke-linecap="round"/>
	<path d="M 30.91 45.302 h -7.214 V 32.204 c 0 -0.407 -0.33 -0.737 -0.737 -0.737 h -2.655 c -0.407 0 -0.737 0.33 -0.737 0.737 v 16.491 v 0.001 c 0 0.198 0.079 0.377 0.206 0.509 c 0.003 0.004 0.006 0.008 0.01 0.011 c 0.004 0.004 0.007 0.007 0.011 0.01 c 0.133 0.127 0.311 0.206 0.509 0.206 h 0.001 H 30.91 c 0.407 0 0.736 -0.33 0.736 -0.737 v -2.655 C 31.646 45.632 31.316 45.302 30.91 45.302" style="stroke: none; stroke-width: 1; stroke-dasharray: none; stroke-linecap: butt; stroke-linejoin: miter; stroke-miterlimit: 10; fill: rgb(0,185,0); fill-rule: nonzero; opacity: 1;" transform=" matrix(1 0 0 1 0 0) " stroke-linecap="round"/>
	<path d="M 70.245 35.597 c 0.407 0 0.736 -0.33 0.736 -0.737 v -2.655 c 0 -0.407 -0.329 -0.738 -0.736 -0.738 H 59.639 h -0.001 c -0.199 0 -0.378 0.079 -0.511 0.208 c -0.002 0.003 -0.006 0.005 -0.008 0.008 c -0.004 0.005 -0.008 0.009 -0.012 0.013 c -0.126 0.132 -0.204 0.311 -0.204 0.508 v 0.001 v 16.489 v 0.001 c 0 0.198 0.079 0.377 0.206 0.509 c 0.003 0.004 0.007 0.008 0.01 0.011 c 0.003 0.003 0.007 0.007 0.011 0.01 c 0.132 0.127 0.311 0.206 0.509 0.206 h 0.001 h 10.606 c 0.407 0 0.736 -0.33 0.736 -0.737 v -2.655 c 0 -0.407 -0.329 -0.737 -0.736 -0.737 h -7.213 v -2.788 h 7.213 c 0.407 0 0.736 -0.33 0.736 -0.737 v -2.655 c 0 -0.407 -0.329 -0.738 -0.736 -0.738 h -7.213 v -2.787 H 70.245 z" style="stroke: none; stroke-width: 1; stroke-dasharray: none; stroke-linecap: butt; stroke-linejoin: miter; stroke-miterlimit: 10; fill: rgb(0,185,0); fill-rule: nonzero; opacity: 1;" transform=" matrix(1 0 0 1 0 0) " stroke-linecap="round"/>
</g>
</svg>